<?xml version="1.0" ?><svg enable-background="new 0 0 457 286" id="Layer_1" version="1.1" viewBox="0 0 457 286" xml:space="preserve" xmlns="http://www.w3.org/2000/svg" xmlns:xlink="http://www.w3.org/1999/xlink"><rect height="286" stroke="#000000" stroke-miterlimit="10" width="457"/><g><path d="M226.953,280.054c-1.46,0-2.912-0.381-4.19-1.121l-13.339-7.892c-1.991-1.115-1.018-1.509-0.362-1.738   c2.657-0.922,3.195-1.135,6.031-2.743c0.295-0.166,0.687-0.103,0.992,0.076l10.247,6.084c0.372,0.206,0.896,0.206,1.237,0   l39.95-23.058c0.372-0.212,0.61-0.64,0.61-1.081v-46.103c0-0.451-0.239-0.872-0.62-1.101l-39.933-23.038   c-0.368-0.216-0.859-0.216-1.231,0l-39.923,23.045c-0.388,0.222-0.634,0.657-0.634,1.094v46.103c0,0.441,0.245,0.859,0.63,1.068   l10.944,6.323c5.938,2.969,9.573-0.528,9.573-4.041v-45.52c0-0.643,0.518-1.151,1.161-1.151h5.066c0.634,0,1.158,0.508,1.158,1.151   v45.52c0,7.925-4.316,12.47-11.829,12.47c-2.309,0-4.127,0-9.202-2.501l-10.476-6.031c-2.587-1.496-4.19-4.293-4.19-7.288v-46.103   c0-2.995,1.602-5.792,4.19-7.281l39.95-23.085c2.528-1.43,5.888-1.43,8.396,0l39.947,23.085c2.587,1.496,4.196,4.286,4.196,7.281   v46.103c0,2.995-1.609,5.782-4.196,7.288l-39.947,23.065C229.882,279.673,228.433,280.054,226.953,280.054z" fill="#FFFFFF"/><path d="M239.293,248.292c-17.482,0-21.144-8.024-21.144-14.755c0-0.64,0.514-1.151,1.155-1.151h5.165   c0.577,0,1.058,0.415,1.148,0.979c0.78,5.258,3.105,7.912,13.677,7.912c8.416,0,11.999-1.904,11.999-6.369   c0-2.574-1.015-4.485-14.095-5.766c-10.93-1.081-17.691-3.496-17.691-12.241c0-8.061,6.794-12.868,18.186-12.868   c12.798,0,19.131,4.442,19.933,13.972c0.03,0.328-0.086,0.644-0.305,0.889c-0.219,0.229-0.524,0.368-0.846,0.368h-5.185   c-0.537,0-1.012-0.381-1.121-0.902c-1.244-5.533-4.269-7.301-12.476-7.301c-9.189,0-10.257,3.201-10.257,5.599   c0,2.906,1.261,3.752,13.667,5.394c12.277,1.622,18.109,3.921,18.109,12.549C259.21,243.306,251.952,248.292,239.293,248.292z" fill="#FFFFFF"/></g><g><path d="M296.899,199.941c0,4.236-3.463,7.699-7.699,7.699c-4.197,0-7.699-3.422-7.699-7.699   c0-4.359,3.586-7.701,7.699-7.701C293.356,192.24,296.899,195.582,296.899,199.941z M282.744,199.919   c0,3.586,2.892,6.479,6.435,6.479c3.586,0,6.479-2.954,6.479-6.479c0-3.584-2.932-6.436-6.479-6.436   C285.676,193.484,282.744,196.293,282.744,199.919z M286.307,195.622h2.976c1.018,0,3.015,0,3.015,2.282   c0,1.589-1.018,1.914-1.632,2.118c1.184,0.082,1.264,0.856,1.426,1.956c0.083,0.692,0.206,1.874,0.448,2.281h-1.831   c-0.043-0.406-0.328-2.607-0.328-2.728c-0.119-0.49-0.285-0.733-0.895-0.733h-1.506v3.461h-1.672v-8.637L286.307,195.622   L286.307,195.622z M287.939,199.41h1.343c1.098,0,1.304-0.773,1.304-1.221c0-1.183-0.816-1.183-1.264-1.183h-1.383L287.939,199.41   L287.939,199.41z" fill="#FFFFFF"/></g><path d="M103.243,99.677c0-1.841-0.969-3.533-2.558-4.445L58.33,70.857c-0.716-0.421-1.519-0.64-2.332-0.674  c-0.073,0-0.378,0-0.438,0c-0.809,0.033-1.612,0.252-2.339,0.674L10.866,95.232c-1.579,0.912-2.561,2.604-2.561,4.445l0.093,65.635  c0,0.912,0.474,1.762,1.277,2.209c0.786,0.471,1.758,0.471,2.541,0l25.172-14.414c1.592-0.945,2.561-2.614,2.561-4.438v-30.665  c0-1.828,0.968-3.52,2.554-4.428l10.718-6.173c0.799-0.461,1.672-0.687,2.564-0.687c0.872,0,1.768,0.226,2.544,0.687l10.715,6.173  c1.586,0.909,2.558,2.601,2.558,4.428v30.665c0,1.824,0.982,3.503,2.564,4.438l25.165,14.414c0.789,0.471,1.775,0.471,2.558,0  c0.78-0.448,1.271-1.297,1.271-2.209L103.243,99.677z" fill="#FFFFFF"/><path d="M307.04,9.451c-0.793-0.441-1.76-0.431-2.543,0.028c-0.781,0.46-1.262,1.299-1.262,2.206v65  c0,0.639-0.342,1.231-0.894,1.551c-0.554,0.32-1.237,0.32-1.792,0l-10.608-6.112c-1.583-0.912-3.53-0.91-5.112,0.002l-42.372,24.453  c-1.584,0.914-2.559,2.603-2.559,4.43v48.916c0,1.828,0.975,3.516,2.558,4.432l42.37,24.471c1.584,0.914,3.534,0.914,5.118,0  l42.376-24.471c1.583-0.915,2.558-2.604,2.558-4.432V27.989c0-1.854-1.003-3.565-2.624-4.469L307.04,9.451z M303.109,133.853  c0,0.456-0.244,0.879-0.64,1.106l-14.548,8.386c-0.395,0.227-0.882,0.227-1.277,0l-14.548-8.386c-0.396-0.227-0.64-0.65-0.64-1.106  v-16.799c0-0.456,0.244-0.879,0.639-1.108l14.548-8.403c0.396-0.229,0.884-0.229,1.28,0l14.548,8.403  c0.395,0.229,0.639,0.652,0.639,1.108L303.109,133.853L303.109,133.853z" fill="#FFFFFF"/><g><path d="M448.131,116.615c1.576-0.915,2.546-2.601,2.546-4.424v-11.854c0-1.823-0.97-3.51-2.548-4.425   L406.03,71.469c-1.584-0.921-3.54-0.922-5.127-0.007l-42.356,24.453c-1.583,0.914-2.558,2.602-2.558,4.43v48.903   c0,1.839,0.987,3.536,2.584,4.445l42.093,23.985c1.552,0.886,3.455,0.896,5.017,0.028l25.46-14.151   c0.808-0.449,1.311-1.297,1.315-2.219c0.007-0.922-0.484-1.776-1.284-2.236l-42.625-24.465c-0.796-0.456-1.285-1.304-1.285-2.22   v-15.326c0-0.914,0.487-1.76,1.28-2.216l13.266-7.648c0.789-0.456,1.765-0.456,2.554,0l13.273,7.648   c0.793,0.456,1.28,1.302,1.28,2.216v12.058c0,0.916,0.49,1.762,1.282,2.218c0.793,0.458,1.77,0.454,2.561-0.005L448.131,116.615z" fill="#FFFFFF"/><path d="M402.842,114.324c0.304-0.176,0.678-0.176,0.982,0l8.13,4.69c0.304,0.176,0.491,0.499,0.491,0.851v9.388   c0,0.352-0.187,0.675-0.491,0.851l-8.13,4.69c-0.304,0.176-0.678,0.176-0.982,0l-8.124-4.69c-0.304-0.176-0.491-0.499-0.491-0.851   v-9.388c0-0.352,0.187-0.675,0.491-0.851L402.842,114.324z" fill="#FFFFFF"/></g><g><linearGradient gradientTransform="matrix(1 0 0 -1 0 48.11)" gradientUnits="userSpaceOnUse" id="XMLID_2_" x1="124.196" x2="218.4" y1="-76.8035" y2="-76.8035"><stop offset="0.0053" style="stop-color:#FFFFFF"/><stop offset="0.1938" style="stop-color:#E8E8E8"/><stop offset="0.5423" style="stop-color:#C2C2C2"/><stop offset="0.8235" style="stop-color:#ABABAB"/><stop offset="1" style="stop-color:#A3A3A3"/></linearGradient><path d="M168.756,71.979c1.57-0.907,3.505-0.907,5.075,0l42.03,24.255   c1.572,0.907,2.539,2.582,2.539,4.397v48.546c0,1.813-0.967,3.489-2.538,4.397l-42.03,24.274c-1.571,0.907-3.507,0.907-5.078,0   l-42.021-24.274c-1.57-0.908-2.537-2.583-2.537-4.397v-48.548c0-1.813,0.968-3.489,2.539-4.395L168.756,71.979z" fill="url(#XMLID_2_)" id="XMLID_67_"/><g><g><g><g><defs><path d="M173.841,71.979c-1.57-0.907-3.505-0.907-5.075,0l-42.03,24.255c-1.572,0.907-2.539,2.582-2.539,4.397        v48.546c0,1.813,0.968,3.489,2.538,4.397l42.03,24.274c1.571,0.907,3.507,0.907,5.078,0l42.021-24.274        c1.57-0.908,2.537-2.583,2.537-4.397v-48.548c0-1.813-0.967-3.489-2.539-4.395L173.841,71.979z" id="SVGID_1_"/></defs><clipPath id="SVGID_2_"><use overflow="visible" xlink:href="#SVGID_1_"/></clipPath><g clip-path="url(#SVGID_2_)"><path d="M168.707,71.979l-42.07,24.255c-1.571,0.907-2.637,2.582-2.637,4.395v48.548        c0,1.178,0.444,2.293,1.182,3.182l47.297-80.907C171.216,71.142,169.857,71.314,168.707,71.979z" fill="none"/><path d="M172.746,178.275c0.337-0.109,0.669-0.245,0.986-0.428l41.93-24.274c1.57-0.908,2.337-2.583,2.337-4.397        V100.63c0-1.218-0.36-2.367-1.066-3.269L172.746,178.275z" fill="none"/><path d="M215.649,96.233l-41.843-24.255        c-0.419-0.242-0.867-0.414-1.327-0.527l-47.297,80.907c0.398,0.48,0.878,0.896,1.428,1.214l42.094,24.274        c1.255,0.724,2.707,0.86,4.042,0.428l44.188-80.914C216.588,96.919,216.165,96.531,215.649,96.233z" enable-background="new    " fill="#4B4B4B" opacity="0.66"/></g></g></g></g><g><g><g><defs><path d="M173.841,71.979c-1.57-0.907-3.505-0.907-5.075,0l-42.03,24.255c-1.572,0.907-2.539,2.582-2.539,4.397        v48.546c0,1.813,0.968,3.489,2.538,4.397l42.03,24.274c1.571,0.907,3.507,0.907,5.078,0l42.021-24.274        c1.57-0.908,2.537-2.583,2.537-4.397v-48.548c0-1.813-0.967-3.489-2.539-4.395L173.841,71.979z" id="SVGID_3_"/></defs><clipPath id="SVGID_4_"><use overflow="visible" xlink:href="#SVGID_3_"/></clipPath><g clip-path="url(#SVGID_4_)"><path d="M127.114,95.958l-0.477,0.275c-1.571,0.907-2.637,2.582-2.637,4.395v48.548        c0,1.813,1.041,3.489,2.61,4.397l42.094,24.274c1.134,0.655,2.431,0.829,3.656,0.539L127.114,95.958z" fill="none"/><path d="M218,100.63c0-1.815-0.78-3.49-2.351-4.397l-41.843-24.255c-0.37-0.214-0.763-0.373-1.166-0.486        L218,148.986V100.63z" fill="none"/><linearGradient gradientTransform="matrix(1 0 0 -1 0 48.11)" gradientUnits="userSpaceOnUse" id="SVGID_5_" x1="123.545" x2="220.7228" y1="-76.7345" y2="-76.7345"><stop offset="0" style="stop-color:#A3A3A3"/><stop offset="0.1765" style="stop-color:#ABABAB"/><stop offset="0.4577" style="stop-color:#C2C2C2"/><stop offset="0.8062" style="stop-color:#E8E8E8"/><stop offset="0.9947" style="stop-color:#FFFFFF"/></linearGradient><path d="M173.732,177.847l41.93-24.274c1.57-0.908,2.337-2.583,2.337-4.397v-0.19l-45.36-77.493        c-1.307-0.366-2.733-0.207-3.933,0.486l-41.593,23.98l45.246,82.428C172.832,178.274,173.295,178.1,173.732,177.847z" fill="url(#SVGID_5_)"/></g></g></g></g></g></g></svg>